# xmcd
#
# Track frame offsets:
#	150
#	10192
#	23727
#	35587
#	44517
#	63492
#	90645
#	103888
#	117214
#	135073
#	145644
#	164796
#	189352
#	207430
#	213354
#	239028
#	256750
#	269585
#	282145
#	306698
#	326739
#	344669
#	354494
#
# Disc length: 4730 seconds
#
# Revision: 1
# Processed by: cddbd v1.5.1PL0 Copyright (c) Steve Scherf et al.
# Submitted via: EasyCDDAExtractor 6.2.0.3
#
DISCID=66127817
DTITLE=Various Artist - Straight from the Heart
DYEAR=1900
DGENRE=
TTITLE0=Chili Highfly - Is it love
TTITLE1=DJ Marc Farina - Funky Decknitions Vol. 2
TTITLE2=Audio Bullys - Shot you Down
TTITLE3=Minimal Funk II - The groovy Thang
TTITLE4=Patrick Santos feat. bARNEy - Gonna get you
TTITLE5=Joey Negro - Must be the Music (Remix)
TTITLE6=Scott Grooves - Reconnection (Daft Punk Remix)
TTITLE7=Bob Sinclar - I feel for you
TTITLE8=Pocket Pets - Lovin' you
TTITLE9=Phoenix - I can try
TTITLE10=Simply Red - Sunrise
TTITLE11=Loose Change - Straight from the Heart (Remix)
TTITLE12=Junior Jack - Stupid Disco
TTITLE13=Eric Prydz and Steve Angelo - Woz not woz
TTITLE14=Solitair - You got the love
TTITLE15=J. J. Floris and Steve Smooth - Release
TTITLE16=Global Deejays - What a feeling
TTITLE17=David Guetta - Stay
TTITLE18=Eric Prydz - Slammin'
TTITLE19=Axwell - Feel the vibe
TTITLE20=DJ Tonka - 1984
TTITLE21=Patrick Santos - To the music
TTITLE22=Homer Simpson - Nein
EXTD=
EXTT0=
EXTT1=
EXTT2=
EXTT3=
EXTT4=
EXTT5=
EXTT6=
EXTT7=
EXTT8=
EXTT9=
EXTT10=
EXTT11=
EXTT12=
EXTT13=
EXTT14=
EXTT15=
EXTT16=
EXTT17=
EXTT18=
EXTT19=
EXTT20=
EXTT21=
EXTT22=
PLAYORDER=
